<svg xmlns="http://www.w3.org/2000/svg" height="512" preserveAspectRatio="none" style="display: block;" version="1.1" viewBox="0 0 2048 2048" width="512">
<defs>
	<linearGradient gradientUnits="userSpaceOnUse" id="Gradient1" x1="693.839" x2="818.544" y1="198.674" y2="452.457">
		<stop class="stop0" offset="0" stop-color="rgb(220,93,38)" stop-opacity="1"></stop>
		<stop class="stop1" offset="1" stop-color="rgb(244,142,36)" stop-opacity="1"></stop>
	</linearGradient>
	<linearGradient gradientUnits="userSpaceOnUse" id="Gradient2" x1="1495.91" x2="1570.42" y1="750.669" y2="893.889">
		<stop class="stop0" offset="0" stop-color="rgb(255,158,43)" stop-opacity="1"></stop>
		<stop class="stop1" offset="1" stop-color="rgb(211,82,68)" stop-opacity="1"></stop>
	</linearGradient>
	<linearGradient gradientUnits="userSpaceOnUse" id="Gradient3" x1="1420.53" x2="1618.66" y1="1316.31" y2="1720.09">
		<stop class="stop0" offset="0" stop-color="rgb(255,161,138)" stop-opacity="1"></stop>
		<stop class="stop1" offset="1" stop-color="rgb(73,25,255)" stop-opacity="1"></stop>
	</linearGradient>
	<linearGradient gradientUnits="userSpaceOnUse" id="Gradient4" x1="1616.65" x2="265" y1="1503.12" y2="637.106">
		<stop class="stop0" offset="0" stop-color="rgb(168,181,200)" stop-opacity="1"></stop>
		<stop class="stop1" offset="1" stop-color="rgb(243,242,240)" stop-opacity="1"></stop>
	</linearGradient>
</defs>
<path d="M 496.351 302.506 C 519.181 289.291 540.98 279.391 563.78 266.811 L 618.518 236.411 C 713.23 182.573 707.677 186.105 802.667 234.076 L 1166.22 421.621 C 1176.16 426.824 1203.97 439.531 1211.82 444.62 C 1229.4 452.15 1255.46 466.75 1272.86 475.906 L 1488.18 586.656 C 1537.51 612.142 1579.42 635.701 1605.27 688.296 C 1631.18 734.248 1627.8 780.231 1627.8 830.809 L 1627.73 950.505 C 1629.3 998.076 1627.66 1053.91 1627.69 1102.4 L 1627.75 1176.3 C 1627.76 1186.34 1628.32 1204.14 1627.73 1213.48 L 1627.78 1587.95 C 1627.9 1609.03 1628.88 1625.65 1627.73 1647.23 C 1613.44 1696.15 1603.03 1719.93 1555.24 1742.33 C 1509.39 1763.83 1458.74 1798.95 1412.45 1822.47 C 1412.27 1822.71 1412.09 1822.95 1411.91 1823.19 C 1362.3 1862.75 1307.58 1838.18 1258.35 1813.65 L 1183.71 1775.54 C 1170.68 1768.81 1080.98 1724.51 1075.65 1718.45 C 1056.71 1711.56 1027.12 1695.69 1008.09 1686.23 L 591.275 1476.94 C 549.942 1456.16 510.381 1440.88 482.281 1401.95 C 476.392 1393.79 454.06 1365.5 453.526 1356.99 C 424.938 1324.96 424.82 1242.04 424.863 1202.41 L 424.858 467.235 C 424.857 420.782 438.447 315.123 496.351 302.506 z" fill="url(#Gradient4)" transform="translate(0,0)"></path>
<path d="M 1422.62 786.233 L 1423.86 786.092 L 1425.44 786.98 C 1434.04 785.147 1454.92 772.871 1463.69 768.168 C 1509.04 743.849 1555.4 723.382 1602.95 703.839 C 1614.69 699.014 1602.53 696.277 1605.27 688.296 C 1631.18 734.248 1627.8 780.231 1627.8 830.809 L 1627.73 950.505 C 1629.3 998.076 1627.66 1053.91 1627.69 1102.4 L 1627.75 1176.3 C 1627.76 1186.34 1628.32 1204.14 1627.73 1213.48 L 1627.78 1587.95 C 1627.9 1609.03 1628.88 1625.65 1627.73 1647.23 C 1613.44 1696.15 1603.03 1719.93 1555.24 1742.33 C 1509.39 1763.83 1458.74 1798.95 1412.45 1822.47 C 1413.44 1819.17 1423.62 1809.06 1426.63 1804.64 C 1447.7 1773.63 1451.28 1747.26 1452.87 1711.42 C 1452.14 1703.25 1452.79 1680.95 1452.81 1672 L 1452.86 1454.2 C 1452.85 1430.73 1452.3 1405.81 1452.87 1382.49 L 1452.9 1160.67 C 1452.9 1129.54 1451.29 1083.37 1452.87 1053.18 L 1452.9 954.959 C 1452.93 878.729 1453.97 858.734 1422.62 786.233 z" fill="rgb(182,90,139)" transform="translate(0,0)"></path>
<path d="M 1627.73 1511.41 C 1627.75 1420.83 1618.82 1300.63 1627.73 1213.48 L 1627.78 1587.95 C 1627.9 1609.03 1628.88 1625.65 1627.73 1647.23 C 1613.44 1696.15 1603.03 1719.93 1555.24 1742.33 C 1509.39 1763.83 1458.74 1798.95 1412.45 1822.47 C 1413.44 1819.17 1423.62 1809.06 1426.63 1804.64 C 1447.7 1773.63 1451.28 1747.26 1452.87 1711.42 C 1452.14 1703.25 1452.79 1680.95 1452.81 1672 L 1452.86 1454.2 C 1452.85 1430.73 1452.3 1405.81 1452.87 1382.49 C 1454.67 1389.86 1454.58 1496.04 1454.26 1508.35 C 1453.64 1531.55 1452.48 1549.25 1453.2 1572.82 L 1452.87 1571.64 C 1470.65 1586.3 1483.38 1570.23 1500.37 1558.24 C 1530.35 1537.07 1564.48 1516.55 1601.36 1511.36 C 1621.46 1508.54 1620.31 1497.61 1627.73 1511.41 z" fill="url(#Gradient3)" transform="translate(0,0)"></path>
<path d="M 1422.62 786.233 L 1423.86 786.092 L 1425.44 786.98 C 1434.04 785.147 1454.92 772.871 1463.69 768.168 C 1509.04 743.849 1555.4 723.382 1602.95 703.839 C 1614.69 699.014 1602.53 696.277 1605.27 688.296 C 1631.18 734.248 1627.8 780.231 1627.8 830.809 L 1627.73 950.505 C 1623.43 936.176 1632.7 871.142 1625.12 860.121 L 1624.88 862.943 C 1618.93 867.139 1605.52 865.45 1598.42 868.787 C 1561.71 886.032 1537.21 919.916 1496.96 930.801 C 1491.97 932.151 1484.42 934.48 1480.94 938.361 C 1471.46 949.723 1464.36 935.669 1456.02 940.937 L 1455.51 940.506 C 1447.84 965.178 1460.45 1028.34 1452.87 1053.18 L 1452.9 954.959 C 1452.93 878.729 1453.97 858.734 1422.62 786.233 z" fill="url(#Gradient2)" transform="translate(0,0)"></path>
<path d="M 496.351 302.506 C 519.181 289.291 540.98 279.391 563.78 266.811 L 618.518 236.411 C 713.23 182.573 707.677 186.105 802.667 234.076 L 1166.22 421.621 C 1176.16 426.824 1203.97 439.531 1211.82 444.62 C 1229.4 452.15 1255.46 466.75 1272.86 475.906 L 1488.18 586.656 C 1537.51 612.142 1579.42 635.701 1605.27 688.296 C 1602.53 696.277 1614.69 699.014 1602.95 703.839 C 1555.4 723.382 1509.04 743.849 1463.69 768.168 C 1454.92 772.871 1434.04 785.147 1425.44 786.98 L 1423.86 786.092 L 1422.62 786.233 C 1418.98 780.863 1413.77 770.824 1410.45 764.728 C 1370.35 691.251 1307.37 670.006 1236.04 635.003 L 1093.37 563.425 C 1067.46 550.477 1030.22 533.364 1006.1 519.319 L 1005.15 518.757 C 1000.05 516.991 977.588 504.977 971.226 501.754 L 655.834 344.399 C 612.819 323.253 561.151 286.865 510.598 299.119 C 506.295 300.162 500.582 302.127 496.351 302.506 z" fill="rgb(251,178,40)" transform="translate(0,0)"></path>
<path d="M 496.351 302.506 C 519.181 289.291 540.98 279.391 563.78 266.811 L 618.518 236.411 C 713.23 182.573 707.677 186.105 802.667 234.076 L 1166.22 421.621 C 1176.16 426.824 1203.97 439.531 1211.82 444.62 L 1211.38 446.739 C 1137.77 411.384 1066.07 370.732 992.514 335.113 C 990.529 334.152 981.547 333.986 984.905 342.478 C 979.235 358.988 877.254 377.511 905.747 384.159 L 905.556 385.722 C 900.233 388.77 892.422 391.394 889.466 396.46 C 883.361 406.923 877.368 401.126 871.006 406.445 C 862.524 413.537 856.006 430.774 849.347 437.977 L 850.212 438.443 C 866.184 447.206 1005.06 515.918 1006.59 518.361 L 1005.15 518.757 C 1000.05 516.991 977.588 504.977 971.226 501.754 L 655.834 344.399 C 612.819 323.253 561.151 286.865 510.598 299.119 C 506.295 300.162 500.582 302.127 496.351 302.506 z" fill="url(#Gradient1)" transform="translate(0,0)"></path>
<path d="M 453.526 1356.99 C 458.26 1359.81 489.392 1405.63 518.82 1424.22 L 518.067 1424.89 C 503.944 1419.47 495.734 1405.2 483.428 1398.07 C 486.445 1409.46 525.878 1441.54 536.738 1447.06 L 880.107 1619.24 C 893.503 1625.97 1074.07 1714.68 1075.65 1718.45 C 1056.71 1711.56 1027.12 1695.69 1008.09 1686.23 L 591.275 1476.94 C 549.942 1456.16 510.381 1440.88 482.281 1401.95 C 476.392 1393.79 454.06 1365.5 453.526 1356.99 z" fill="rgb(159,166,194)" transform="translate(0,0)"></path>
<path d="M 565.554 546.254 C 578.519 538.227 627.235 505.797 638.098 509.726 C 672.428 522.142 782.054 575.363 815.72 597.101 C 828.967 607.031 874.138 696.093 884.844 715.562 L 957.314 846.913 C 981.278 890.947 1003.71 933.658 1028.7 977.314 L 1055.7 1023.57 C 1057.46 1026.57 1065.13 1045.86 1066.96 1036.03 L 1066.89 895.213 C 1066.89 877.408 1061.22 812.232 1075.65 804.499 C 1094.27 794.58 1136.62 770.121 1153.73 765.311 C 1162.37 767.818 1169.27 771.49 1177.13 775.819 C 1206.44 791.958 1288.8 828.439 1308.26 845.782 L 1309.28 846.673 C 1309.48 846.856 1309.67 847.039 1309.87 847.222 C 1322.5 866.622 1317.52 907.191 1317.51 930.685 L 1317.45 1513.95 C 1317.45 1524.18 1318.84 1561.17 1317.49 1568.61 C 1318.56 1574.3 1318.29 1627.17 1317.49 1634.04 C 1307.81 1643.15 1262.43 1668.71 1248.56 1675.79 C 1230.9 1686.58 1093.21 1607.97 1078.32 1596.56 C 1066.56 1587.53 1030.3 1514.64 1020.57 1497.01 L 877.643 1236.16 C 860.121 1204.47 822.772 1148.92 811.03 1116.84 L 811.03 1311.87 C 811.304 1370.4 820.391 1369.77 769.317 1397.79 C 756.884 1404.61 745.161 1412.31 731.192 1416.71 C 689.319 1399.84 635.602 1369.08 593.437 1347.81 C 566.013 1333.98 569.168 1307.92 569.131 1281.39 C 558.782 1272.19 551.749 1258.16 551.695 1244.21 L 551.74 692.742 C 551.731 664.838 541.795 558.184 565.554 546.254 z" fill="rgb(221,30,29)" transform="translate(0,0)"></path>
<path d="M 1236.11 887.848 C 1244.74 885.61 1300.52 853.574 1309.87 847.222 C 1322.5 866.622 1317.52 907.191 1317.51 930.685 L 1317.45 1513.95 C 1317.45 1524.18 1318.84 1561.17 1317.49 1568.61 C 1303.72 1579.35 1252.15 1608.45 1236.11 1615.57 C 1237.29 1565.61 1236.12 1510.16 1236.11 1459.85 L 1236.13 1077.72 C 1236.14 1016.41 1234.71 948.729 1236.11 887.848 z" fill="rgb(250,119,41)" transform="translate(0,0)"></path>
<path d="M 815.72 597.101 C 828.967 607.031 874.138 696.093 884.844 715.562 L 957.314 846.913 C 981.278 890.947 1003.71 933.658 1028.7 977.314 L 1055.7 1023.57 C 1057.46 1026.57 1065.13 1045.86 1066.96 1036.03 C 1066.03 1047.31 1066.88 1063.9 1066.91 1075.77 L 1066.97 1155.36 C 1066.97 1174.55 1064.26 1208.54 1066.96 1226.39 C 1049.77 1202.65 1039.54 1180.81 1026.04 1155.41 L 774.119 694.975 C 764.404 677.115 754.319 656.08 743.082 639.43 C 752.81 635.856 810.193 604.94 815.72 597.101 z" fill="rgb(250,119,41)" transform="translate(0,0)"></path>
<path d="M 719.17 1353.85 C 733.042 1337.96 727.182 1288.74 727.15 1266.6 L 727.165 1071.74 C 727.152 1052.03 719.124 951.894 738.281 945.802 C 745.934 950.009 772.971 1006.67 778.262 1017.82 C 785.053 1024.16 808.001 1064.01 811.03 1072.86 C 809.951 1081.58 811.331 1095.55 811.03 1105.32 L 811.03 1116.84 L 811.03 1311.87 C 794.415 1326.25 743.247 1355.45 719.17 1353.85 z" fill="rgb(250,119,41)" transform="translate(0,0)"></path>
<path d="M 778.262 1017.82 C 785.053 1024.16 808.001 1064.01 811.03 1072.86 C 809.951 1081.58 811.331 1095.55 811.03 1105.32 C 802.889 1080.07 782.378 1041.23 778.262 1017.82 z" fill="rgb(200,83,30)" transform="translate(0,0)"></path>
<path d="M 811.03 1072.86 C 822.863 1088.57 831.972 1106.6 841.53 1123.87 L 1020.46 1449.15 C 1031.09 1468.47 1059.19 1531.4 1076.54 1540.44 C 1097.45 1551.33 1220.26 1621.11 1236.11 1615.57 C 1252.15 1608.45 1303.72 1579.35 1317.49 1568.61 C 1318.56 1574.3 1318.29 1627.17 1317.49 1634.04 C 1307.81 1643.15 1262.43 1668.71 1248.56 1675.79 C 1230.9 1686.58 1093.21 1607.97 1078.32 1596.56 C 1066.56 1587.53 1030.3 1514.64 1020.57 1497.01 L 877.643 1236.16 C 860.121 1204.47 822.772 1148.92 811.03 1116.84 L 811.03 1105.32 C 811.331 1095.55 809.951 1081.58 811.03 1072.86 z" fill="rgb(159,166,194)" transform="translate(0,0)"></path>
<path d="M 565.554 546.254 C 578.519 538.227 627.235 505.797 638.098 509.726 C 672.428 522.142 782.054 575.363 815.72 597.101 C 810.193 604.94 752.81 635.856 743.082 639.43 C 725.879 623.75 592.13 557.649 565.554 546.254 z" fill="rgb(251,178,40)" transform="translate(0,0)"></path>
<path d="M 569.131 1281.39 C 585.414 1290.44 605.204 1299.28 622.344 1308 L 679.371 1336.4 C 691.213 1342.21 706.701 1350.55 719.17 1353.85 C 743.247 1355.45 794.415 1326.25 811.03 1311.87 C 811.304 1370.4 820.391 1369.77 769.317 1397.79 C 756.884 1404.61 745.161 1412.31 731.192 1416.71 C 689.319 1399.84 635.602 1369.08 593.437 1347.81 C 566.013 1333.98 569.168 1307.92 569.131 1281.39 z" fill="rgb(159,166,194)" transform="translate(0,0)"></path>
<path d="M 1075.65 804.499 C 1094.27 794.58 1136.62 770.121 1153.73 765.311 C 1162.37 767.818 1169.27 771.49 1177.13 775.819 C 1206.44 791.958 1288.8 828.439 1308.26 845.782 L 1309.28 846.673 C 1309.48 846.856 1309.67 847.039 1309.87 847.222 C 1300.52 853.574 1244.74 885.61 1236.11 887.848 C 1190.97 859.559 1123.98 827.983 1075.65 804.499 z" fill="rgb(251,178,40)" transform="translate(0,0)"></path>
<metadata><recraft-signature>{"signed_by": "recraft", "signature_b64": "cIfxkLOqB02fEywsRaOGqhVLD90IcBoUJk9v4PjEBlGoCnf0GXI/pu5jxXqvC056m/yJ6yFZXToAEpp1PpBvBg==", "signing_algo": "Ed25519"}</recraft-signature></metadata></svg>